<svg width="512" height="512" viewBox="0 0 512 512" xmlns="http://www.w3.org/2000/svg">
  <defs>
    <linearGradient id="grad1" x1="0%" y1="0%" x2="100%" y2="100%">
      <stop offset="0%" style="stop-color:#667eea;stop-opacity:1" />
      <stop offset="100%" style="stop-color:#764ba2;stop-opacity:1" />
    </linearGradient>
    <linearGradient id="grad2" x1="0%" y1="0%" x2="0%" y2="100%">
      <stop offset="0%" style="stop-color:#f093fb;stop-opacity:1" />
      <stop offset="100%" style="stop-color:#f5576c;stop-opacity:1" />
    </linearGradient>
  </defs>

  <circle cx="256" cy="256" r="240" fill="url(#grad1)"/>

  <rect x="120" y="140" width="272" height="200" rx="16" fill="white" opacity="0.95"/>

  <line x1="150" y1="180" x2="362" y2="180" stroke="#667eea" stroke-width="8" stroke-linecap="round"/>
  <line x1="150" y1="220" x2="300" y2="220" stroke="#764ba2" stroke-width="6" stroke-linecap="round" opacity="0.6"/>
  <line x1="150" y1="250" x2="340" y2="250" stroke="#764ba2" stroke-width="6" stroke-linecap="round" opacity="0.6"/>
  <line x1="150" y1="280" x2="280" y2="280" stroke="#764ba2" stroke-width="6" stroke-linecap="round" opacity="0.4"/>

  <g transform="translate(340, 100)">
    <circle cx="0" cy="0" r="45" fill="url(#grad2)"/>
    <path d="M -15,-5 Q -15,-20 0,-25 Q 15,-20 15,-5 L 15,5 Q 15,12 8,12 L -8,12 Q -15,12 -15,5 Z" fill="white"/>
    <rect x="-12" y="10" width="24" height="4" rx="2" fill="white"/>
    <circle cx="0" cy="18" r="3" fill="white"/>
    <circle cx="18" cy="-18" r="10" fill="#ff4757"/>
  </g>

  <g transform="translate(256, 380)">
    <rect x="-60" y="-30" width="120" height="70" rx="8" fill="white" opacity="0.9"/>
    <rect x="-50" y="-20" width="100" height="50" rx="4" fill="#667eea" opacity="0.3"/>
    <rect x="-40" y="5" width="12" height="15" rx="2" fill="#667eea"/>
    <rect x="-20" y="-5" width="12" height="25" rx="2" fill="#764ba2"/>
    <rect x="0" y="10" width="12" height="10" rx="2" fill="#f5576c"/>
    <rect x="20" y="0" width="12" height="20" rx="2" fill="#667eea"/>
  </g>

  <text
    x="256"
    y="474"
    text-anchor="middle"
    font-family="SF Pro Display, SF Pro Text, Arial, sans-serif"
    font-weight="700"
    font-size="40"
    fill="#8B5CF6"
  >
    Diagnu
  </text>
</svg>
