<svg width="128" height="128" viewBox="0 0 128 128" xmlns="http://www.w3.org/2000/svg">
  <defs>
    <linearGradient id="bg" x1="0%" y1="0%" x2="100%" y2="100%">
      <stop offset="0%" stop-color="#8b5cf6"/>
      <stop offset="100%" stop-color="#5b21b6"/>
    </linearGradient>
    <linearGradient id="accent" x1="0%" y1="0%" x2="0%" y2="100%">
      <stop offset="0%" stop-color="#ffffff"/>
      <stop offset="100%" stop-color="#e9d5ff"/>
    </linearGradient>
  </defs>

  <rect x="8" y="8" width="112" height="112" rx="28" fill="url(#bg)"/>

  <!-- Wrench -->
  <g transform="translate(26 22) rotate(8 36 36)">
    <path
      d="M64 12c-6 0-11 2-15 6l9 9-9 9-9-9c-4 4-6 9-6 15 0 9 5 16 13 20l-22 22c-2 2-2 5 0 7l6 6c2 2 5 2 7 0l22-22c4 2 8 3 12 3 12 0 22-10 22-22 0-2 0-4-1-6l-11 11-9-9 11-11c-2-1-4-1-6-1z"
      fill="url(#accent)"
      opacity="0.95"
    />
  </g>

  <!-- Brush -->
  <g transform="translate(18 62)">
    <rect x="36" y="-6" width="12" height="40" rx="6" fill="#f3e8ff"/>
    <rect x="28" y="20" width="28" height="20" rx="8" fill="#ffffff"/>
    <path
      d="M20 40h44c0 10-8 20-22 20S20 50 20 40z"
      fill="#e9d5ff"
    />
  </g>
</svg>
